<?xml version="1.0" encoding="UTF-8" standalone="no"?><svg xmlns="http://www.w3.org/2000/svg" xmlns:xlink="http://www.w3.org/1999/xlink" fill="#000000" height="486.5" preserveAspectRatio="xMidYMid meet" version="1" viewBox="5.6 6.3 486.5 486.5" width="486.5" zoomAndPan="magnify"><g id="change1_1"><circle cx="248.857" cy="249.56" fill="#ffffff" r="243.251"/></g><g fill="#323012" id="change2_1"><circle cx="155.228" cy="132.653" fill="inherit" r="32.374"/><path d="M127.319 188.897H182.938V367.81600000000003H127.319z" fill="inherit"/><path d="M217.917 188.897H270.854V367.81600000000003H217.917z" fill="inherit"/><path d="M220.207 284.157H273.143V367.816H220.207z" fill="inherit"/><path d="M273.143,284.157c0,0-0.826-23.205,5.293-35.271c0,0,6.121-14.859,25.356-14.949 c0,0,22.562-3.94,29.033,18.448c0,0,2.449,12.416,2.449,17.666c0,5.246,0.175,97.768,0.175,97.768h55.443v-102.49 c0,0,4.023-57.891-30.724-73.751c0,0-57.135-25.648-88.147,21.457c0,0-6.762,4.662-7.699-8.396 c-0.932-13.061-8.859,20.056-9.092,20.755c-0.234,0.702,9.092,65.996,9.092,65.996L273.143,284.157z" fill="inherit"/></g></svg>